<svg xmlns="http://www.w3.org/2000/svg" viewBox="0 0 64 64">
  <defs>
    <linearGradient id="mad" x1="32" y1="6" x2="32" y2="58" gradientUnits="userSpaceOnUse">
      <stop stop-color="#ffe9b0"/>
      <stop offset="0.55" stop-color="#f2c46a"/>
      <stop offset="1" stop-color="#d59a3d"/>
    </linearGradient>
  </defs>
  <rect width="64" height="64" rx="14" fill="#0b1120"/>
  <g transform="translate(6.4 5.6) scale(2.13)">
    <g stroke="url(#mad)" stroke-width="1.1" stroke-linecap="round">
      <path d="M12 1.6V3.1"/>
      <path d="M8.7 2.3l.6 1.4"/>
      <path d="M15.3 2.3l-.6 1.4"/>
      <path d="M6 4l1.1 1"/>
      <path d="M18 4l-1.1 1"/>
    </g>
    <circle cx="12" cy="6.1" r="1.75" fill="url(#mad)"/>
    <path fill="url(#mad)" d="M12 8.1c-1.6 0-2.6 1.05-2.86 2.5l-.28 1.6c-.12.66-.55 1.02-1.05 1.28-.5.26-.36.98.2.98l.86-.05-1.06 5.9c-.12.66.42 1.2 1.06 1.02 1.02-.28 2.04-.43 3.08-.43s2.06.15 3.08.43c.64.18 1.18-.36 1.06-1.02l-1.06-5.9.86.05c.56 0 .7-.72.2-.98-.5-.26-.93-.62-1.05-1.28l-.28-1.6C14.6 9.15 13.6 8.1 12 8.1Z"/>
  </g>
</svg>
