<svg xmlns="http://www.w3.org/2000/svg" viewBox="0 0 128 128">
  <!-- Madonnina del Duomo: silhouette estratta da una foto reale della statua
       (Ibex73, Wikimedia Commons, CC BY-SA 4.0) -->
  <defs>
    <linearGradient id="mad" x1="64" y1="10" x2="64" y2="118" gradientUnits="userSpaceOnUse">
      <stop stop-color="#ffedb6"/><stop offset="0.5" stop-color="#f0bf62"/><stop offset="1" stop-color="#cf9236"/>
    </linearGradient>
  </defs>
  <rect width="128" height="128" rx="28" fill="#0b1120"/>
  <g transform="translate(14 10)">
    <path d="M59.8 100.0 31.8 100.0 31.6 97.7 31.2 97.1 31.0 95.5 30.7 95.2 30.6 93.5 30.2 93.0 29.7 92.9 29.2 92.2 29.3 90.8 29.7 89.4 29.6 88.3 29.4 87.7 28.8 87.2 28.2 84.5 27.7 84.4 24.7 85.1 23.0 85.1 22.2 84.9 22.4 84.5 23.4 84.6 23.8 83.8 24.5 83.4 24.6 83.2 23.7 83.2 23.0 83.7 22.0 83.7 21.9 82.6 22.5 82.1 22.5 81.7 22.3 81.6 22.8 81.4 23.2 81.6 23.2 81.2 23.0 80.9 22.7 81.1 22.6 80.9 22.2 80.9 22.1 81.1 21.2 81.3 20.6 80.6 20.5 79.4 20.8 78.8 20.9 72.0 21.3 71.1 21.7 68.6 22.2 68.4 22.6 68.6 22.5 68.1 21.6 67.0 22.2 65.7 22.4 63.2 21.8 62.7 21.2 62.7 20.1 61.9 19.6 61.9 19.4 61.3 19.0 61.3 18.8 61.6 18.4 61.5 18.5 61.2 18.1 61.2 18.0 61.6 17.4 61.3 17.2 61.7 17.2 61.3 16.2 60.5 16.2 59.2 15.8 58.6 14.8 57.5 14.0 57.5 13.7 56.7 14.7 57.0 14.7 56.5 14.3 56.2 14.0 55.3 13.6 55.3 13.6 55.7 13.4 55.6 13.1 53.9 12.4 53.5 11.5 53.9 12.0 53.0 13.5 53.5 12.8 51.0 13.0 50.5 13.7 50.5 14.0 50.0 15.1 49.7 16.4 49.9 16.6 49.4 18.8 49.9 18.9 49.4 19.6 48.9 20.8 49.0 21.8 48.4 23.2 47.9 23.8 48.0 24.1 47.6 23.9 46.8 24.2 46.0 25.0 44.8 26.1 44.1 26.8 42.2 28.2 40.9 29.0 38.6 30.2 36.1 33.2 33.4 33.5 33.5 34.1 33.1 35.6 32.8 37.2 31.3 37.9 31.3 37.8 30.8 38.4 30.2 38.3 29.4 39.1 26.7 39.5 26.3 39.5 25.7 39.3 23.9 38.8 22.4 38.8 21.1 38.6 20.6 37.7 20.1 38.1 19.0 37.3 17.7 37.5 17.3 38.6 17.3 38.7 16.8 39.4 16.7 41.3 14.6 41.5 13.6 40.0 13.5 39.8 13.8 39.7 15.4 38.6 15.0 38.5 14.0 38.2 14.0 38.0 13.3 37.6 13.3 37.5 12.6 36.0 11.8 36.0 11.3 37.8 11.1 37.8 9.8 38.5 10.4 39.0 10.4 39.3 10.0 39.6 10.3 40.3 10.3 40.4 10.7 40.2 11.8 41.6 13.3 42.1 13.3 43.1 12.3 43.8 11.9 45.5 11.8 48.1 12.3 51.6 14.1 53.9 15.8 54.6 16.8 55.4 19.6 54.7 25.8 54.9 28.0 55.3 28.4 56.3 28.0 56.7 27.5 56.5 26.8 57.3 26.1 57.1 24.8 57.8 24.9 58.4 24.2 59.1 24.0 59.7 22.6 59.4 21.4 59.6 21.3 59.8 20.1 58.7 18.9 59.8 18.6 60.0 16.7 60.7 16.7 60.5 15.8 60.2 15.3 60.0 13.9 58.8 13.3 59.4 12.6 59.4 11.8 58.5 10.4 58.6 10.1 59.1 9.9 59.1 9.3 58.6 8.6 58.2 8.6 57.9 9.3 57.0 8.1 55.8 8.8 55.6 8.6 56.1 6.9 55.8 6.3 55.0 5.7 55.3 4.9 54.5 4.2 53.7 4.1 53.8 5.0 52.4 4.6 51.7 5.5 51.4 5.6 51.1 4.1 49.8 3.6 50.0 2.6 49.7 2.5 48.7 2.5 48.8 3.2 48.5 3.6 47.2 3.8 47.0 5.2 46.3 4.4 45.0 4.2 44.4 3.3 44.7 2.6 44.0 1.8 45.3 1.4 45.3 0.3 45.5 -0.0 46.4 0.9 47.5 0.7 47.7 1.8 48.2 2.1 50.0 2.1 50.2 1.3 50.0 0.6 50.4 0.4 51.6 1.0 52.5 0.5 53.1 1.7 54.4 2.1 53.9 2.7 54.1 3.4 56.0 4.6 56.5 4.5 56.7 3.4 57.1 3.5 57.7 4.6 58.4 4.3 58.7 4.5 58.8 5.4 59.8 6.3 60.2 7.0 60.0 7.1 58.7 5.9 57.4 6.1 57.3 6.6 57.5 6.9 59.9 7.3 59.1 7.5 59.0 7.9 60.2 10.2 60.7 10.3 61.1 9.8 61.5 11.0 63.1 11.7 62.2 12.9 62.4 14.6 61.4 14.6 61.4 17.5 62.0 18.0 62.0 19.4 62.6 20.1 62.7 20.7 61.8 21.0 61.4 21.3 61.2 22.8 60.7 23.2 60.2 28.6 59.6 30.9 59.6 31.6 60.1 32.2 58.4 31.9 58.7 33.6 61.0 36.0 61.4 36.1 61.8 36.7 62.7 37.3 62.8 37.8 63.4 38.2 63.4 38.4 68.8 43.8 69.5 45.3 70.0 45.6 71.1 48.3 71.0 48.7 70.3 48.6 70.3 48.9 71.5 50.0 72.2 51.5 71.9 53.0 72.6 53.2 73.2 53.8 74.8 54.5 75.1 56.2 75.9 56.5 76.2 57.0 77.8 57.4 78.3 58.2 78.7 58.2 79.5 58.9 80.9 58.9 81.8 59.8 82.2 60.7 83.2 61.6 84.9 62.0 88.2 63.4 88.5 64.3 88.4 64.9 88.0 65.2 87.3 65.2 86.7 64.6 85.9 64.7 86.2 66.1 87.7 68.6 87.9 69.8 87.3 69.8 86.6 69.4 86.5 69.8 85.9 70.2 85.1 69.6 84.6 69.6 83.6 69.9 83.7 70.7 82.9 70.9 81.8 70.1 81.2 69.0 79.0 68.8 77.5 66.7 77.2 66.9 75.2 66.2 75.1 65.2 74.6 65.2 73.9 64.7 71.5 64.3 68.5 62.4 67.3 62.4 66.8 62.1 65.9 62.3 65.8 61.8 64.9 62.0 64.9 64.1 65.4 66.0 68.4 72.8 69.1 75.5 71.7 81.8 71.7 83.3 71.6 83.7 71.3 83.7 71.3 84.7 71.7 85.2 72.0 86.3 71.9 87.1 73.2 94.0 72.6 94.8 70.9 94.6 70.3 94.2 68.2 94.2 67.8 93.7 67.9 93.2 65.9 92.7 64.3 94.1 63.4 93.1 62.1 92.7 61.0 92.0 61.2 94.3 61.7 95.2 61.9 96.7 62.2 96.8 63.1 95.8 63.2 95.9 61.0 98.5 60.4 98.3 60.4 99.4 59.8 100.0ZM40.9 9.1 40.0 8.2 40.0 7.3 39.2 6.7 39.7 5.8 39.7 5.3 39.0 4.2 39.1 3.7 40.5 4.5 41.7 4.0 42.0 4.7 43.0 4.5 43.1 4.8 43.7 5.3 43.6 5.9 42.7 6.7 43.0 8.2 41.8 8.0 40.9 9.1Z" fill="url(#mad)" fill-rule="evenodd" stroke="none"/>
  </g>
</svg>
